<svg id="enRBDCKT4cp1" xmlns="http://www.w3.org/2000/svg" xmlns:xlink="http://www.w3.org/1999/xlink" viewBox="0 0 175 262" shape-rendering="geometricPrecision" text-rendering="geometricPrecision"><g><path d="M224.64704,115.21816c15.98667,0,28.94644,12.95976,28.94644,28.94644s-12.95976,28.94644-28.94644,28.94644c-14.04682,0-25.75675-10.00546-28.39173-23.27833-.18448.00347-.36939.00521-.55471.00521s-.37022-.00174-.55471-.00521c-2.63498,13.27287-14.34491,23.27833-28.39173,23.27833-15.98667,0-28.94644-12.95976-28.94644-28.94644s12.95976-28.94644,28.94644-28.94644c.18531,0,.37022.00174.55471.00521c2.63498-13.27287,14.34491-23.27833,28.39173-23.27833s25.75675,10.00546,28.39173,23.27833c.18448-.00347.36939-.00521.55471-.00521Z" transform="translate(-113.017685-91.94504)" stroke-width="0"/><path d="M163.024991,156.01653l65.351219-.004516c-13.960643,27.941197-16.086408,60.756282-.000007,75.474806-15.330266-37.816194-47.648129-39.749566-64.755255,0c17.387943-24.034521,11.486869-46.854141-.595957-75.47029Z" transform="matrix(-1.753869 0 0 1.265027 425.388195-144.782117)" stroke-width="0"/></g><ellipse rx="9.922418" ry="9.922418" transform="matrix(.597783 0 0 0.597783 82.154979 200.708978)" stroke-width="0"/><path d="M157.768945,201.395899c-13.358431,11.384696-23.493129,38.093561-19.961225,53.494773c6.089092-28.945405,35.973632-51.083496,58.447589-47.159429c22.1463-2.821547,51.946824,17.524216,57.338169,48.885065.617921-13.364519-.571294-34.748826-21.046895-55.220409h-74.777638Z" transform="translate(-113.017683-91.945037)" stroke-width="1.28"/><path d="M141.71712,263.34416h52.880334c-.550657,11.935075-12.055488,23.08821-23.34416,23.34416-12.327235.693612-27.553521-9.08012-29.536174-23.34416Z" transform="translate(-117.619386-91.94504)" stroke-width="1.28"/><path d="M141.71712,263.34416h52.880334c-.550657,11.935075-12.055488,23.08821-23.34416,23.34416-12.327235.693612-27.553521-9.08012-29.536174-23.34416Z" transform="translate(-55.133737-91.94504)" stroke-width="1.28"/><path d="M171.253294,319.743417l59.389642,20.41178v-20.41178l-59.389642,20.41178v-20.41178Z" transform="matrix(.8431 0 0 1-86.090627-89.815887)" fill="#cc4c4c" stroke="#cc4c4c" stroke-width="1.28"/><path d="M141.71712,309.892763l-22.039137,10.875061-.000001,20.655024h17.765532l4.273606-31.530085Z" transform="matrix(1.127369 0 0 1-134.921247-79.965233)" stroke-width="1.28"/><path d="M241.472688,321.87257c-3.854988,15.34042-1.415504,28.993153,3.593942,29.589957l25.556922-.000001l4.791923-9.178178l3.593942,9.178176l11.181153.000003v-29.589963l-11.181153.000006-3.593942,4.432356v0c-6.767862-2.630825-17.315108-18.520933-17.128942-27.71946-3.106136-3.65716-7.31855-3.149326-8.827307-.000001-1.654112,4.084368-3.836115,10.964585.399327,23.287099l-8.385865.000006Z" transform="matrix(.837235 0 0 0.837235-69.958705-34.739242)" stroke="#000" stroke-width="5" stroke-linecap="round" stroke-linejoin="round"/><ellipse rx="3.27927" ry="3.27927" transform="translate(167.719727 256.238217)" fill="#fff" stroke-width="0"/></svg>